<?xml version="1.0" standalone="no"?>
<!DOCTYPE svg PUBLIC "-//W3C//DTD SVG 20010904//EN"
 "http://www.w3.org/TR/2001/REC-SVG-20010904/DTD/svg10.dtd">
<svg version="1.0" xmlns="http://www.w3.org/2000/svg"
 width="41.000000pt" height="48.000000pt" viewBox="0 0 41.000000 48.000000"
 preserveAspectRatio="xMidYMid meet">

<g transform="translate(0.000000,48.000000) scale(0.100000,-0.100000)"
fill="#000000" stroke="none">
<path d="M176 428 c-14 -20 -14 -24 -1 -45 15 -22 14 -23 -15 -23 -18 0 -33
-6 -36 -15 -4 -10 -20 -15 -50 -15 -32 0 -44 -4 -44 -15 0 -8 7 -15 15 -15 12
0 9 -13 -15 -60 -36 -71 -37 -84 -8 -104 31 -22 84 -20 108 4 26 26 26 30 -10
100 l-30 60 25 0 c14 0 28 7 31 15 4 8 12 15 20 15 11 0 14 -24 14 -118 0
-103 -3 -121 -18 -135 -10 -10 -26 -17 -34 -17 -9 0 -21 -7 -28 -15 -11 -13 2
-15 110 -15 108 0 121 2 110 15 -7 8 -20 15 -30 15 -40 0 -50 30 -50 153 0 93
3 117 14 117 8 0 16 -7 20 -15 3 -8 17 -15 31 -15 l25 0 -30 -60 c-16 -33 -30
-64 -30 -70 0 -21 41 -50 71 -50 73 0 88 43 44 130 -20 40 -22 50 -10 50 8 0
15 7 15 15 0 11 -12 15 -44 15 -30 0 -46 5 -50 15 -3 9 -18 15 -36 15 -29 0
-30 1 -15 23 13 21 13 25 -1 45 -8 12 -24 22 -34 22 -10 0 -26 -10 -34 -22z
m-76 -208 l20 -40 -45 0 -45 0 20 40 c11 22 22 40 25 40 3 0 14 -18 25 -40z
m270 0 l20 -40 -45 0 -45 0 20 40 c11 22 22 40 25 40 3 0 14 -18 25 -40z"/>
</g>
</svg>
