<?xml version="1.0" standalone="no"?>
<!DOCTYPE svg PUBLIC "-//W3C//DTD SVG 20010904//EN"
 "http://www.w3.org/TR/2001/REC-SVG-20010904/DTD/svg10.dtd">
<svg version="1.0" xmlns="http://www.w3.org/2000/svg"
 width="48.000000pt" height="48.000000pt" viewBox="0 0 48.000000 48.000000"
 preserveAspectRatio="xMidYMid meet">

<g transform="translate(0.000000,48.000000) scale(0.100000,-0.100000)"
fill="#000000" stroke="none">
<path d="M248 423 c-57 -35 -74 -65 -44 -76 7 -3 15 -14 18 -25 4 -15 -15 -30
-103 -82 -60 -35 -112 -72 -115 -83 -5 -17 20 -57 37 -57 4 0 55 32 113 70 59
39 111 70 117 70 5 0 15 -13 20 -30 6 -17 17 -30 25 -30 8 0 41 17 74 37 59
37 74 63 47 80 -7 4 -21 27 -31 51 -11 23 -26 48 -34 54 -8 7 -18 22 -23 35
-12 32 -34 28 -101 -14z m63 -1 c-52 -37 -103 -64 -100 -54 5 15 90 70 109 71
10 0 6 -6 -9 -17z m46 -34 c21 -24 57 -88 51 -92 -46 -35 -101 -66 -108 -61
-18 11 -60 83 -60 102 0 11 18 30 43 45 52 33 49 33 74 6z m-114 -137 c-6 -3
-53 -35 -106 -69 -53 -35 -101 -61 -106 -57 -26 16 -4 39 97 98 87 52 109 61
116 49 5 -8 4 -17 -1 -21z m187 21 c0 -10 -109 -76 -115 -70 -5 5 94 76 108
77 4 1 7 -3 7 -7z"/>
<path d="M242 48 c-7 -7 -12 -20 -12 -30 0 -16 11 -18 125 -18 114 0 125 2
125 18 0 10 -5 23 -12 30 -16 16 -210 16 -226 0z m218 -18 c0 -6 -42 -10 -105
-10 -63 0 -105 4 -105 10 0 6 42 10 105 10 63 0 105 -4 105 -10z"/>
</g>
</svg>
